<svg class="hamburger" xmlns="http://www.w3.org/2000/svg" viewBox="0 0 1052.11 561.89"><g class="patty"><rect class="patty__burger" x=".5" y="226.06" width="1051.11" height="172" rx="86" fill="#170000"/></g><g class="cheese"><path d="M986.99 229.35H62.82a86.11 86.11 0 0 0-60.14 63 48.45 48.45 0 0 0 25.31 28.93v15.09a26.93 26.93 0 0 0 26.93 26.93 26.93 26.93 0 0 0 26.93-26.93v-10.43h53.23a26.93 26.93 0 0 0 26.46 22 26.75 26.75 0 0 0 9.54-1.75 26.94 26.94 0 0 0 25.08 17.14 26.93 26.93 0 0 0 26.93-26.93v-10.46l87.16 7.71a21.63 21.63 0 0 1 15.06 7.74c5.78 7.21 19.24 8.19 30.24 8.19a26.78 26.78 0 0 0 9.08-1.58 26.94 26.94 0 0 0 26.1 20.26 26.94 26.94 0 0 0 26.38-21.5 36 36 0 0 1 5.66-12.94l5.34-7.86 536.43 1.07c.88 14.08 24.17 24.12 38.47 24.12h.55v14.79a26.87 26.87 0 0 0 7 18.07 85.92 85.92 0 0 0 38.9-71.95 86 86 0 0 0-62.47-82.71Z" fill="#170000"/><path d="M986.99 229.35H62.82a86.11 86.11 0 0 0-60.14 63 48.45 48.45 0 0 0 25.31 28.93v15.09a26.93 26.93 0 0 0 26.93 26.93 26.93 26.93 0 0 0 26.93-26.93v-10.43h53.23a26.93 26.93 0 0 0 26.46 22 26.75 26.75 0 0 0 9.54-1.75 26.94 26.94 0 0 0 25.08 17.14 26.93 26.93 0 0 0 26.93-26.93v-10.46l87.16 7.71a21.63 21.63 0 0 1 15.06 7.74c5.78 7.21 19.24 8.19 30.24 8.19a26.78 26.78 0 0 0 9.08-1.58 26.94 26.94 0 0 0 26.1 20.26 26.94 26.94 0 0 0 26.38-21.5 36 36 0 0 1 5.66-12.94l5.34-7.86 536.43 1.07c.88 14.08 24.17 24.12 38.47 24.12h.55v14.79a26.87 26.87 0 0 0 7 18.07 85.92 85.92 0 0 0 38.9-71.95 86 86 0 0 0-62.47-82.71Z" fill="#fded19"/><path d="M986.99 229.35H62.82a86.11 86.11 0 0 0-60.14 63 48.45 48.45 0 0 0 25.31 28.93v15.09a26.93 26.93 0 0 0 26.93 26.93 26.93 26.93 0 0 0 26.93-26.93v-10.43h53.23a26.93 26.93 0 0 0 26.46 22 26.75 26.75 0 0 0 9.54-1.75 26.94 26.94 0 0 0 25.08 17.14 26.93 26.93 0 0 0 26.93-26.93v-10.46l87.16 7.71a21.63 21.63 0 0 1 15.06 7.74c5.78 7.21 19.24 8.19 30.24 8.19a26.78 26.78 0 0 0 9.08-1.58 26.94 26.94 0 0 0 26.1 20.26 26.94 26.94 0 0 0 26.38-21.5 36 36 0 0 1 5.66-12.94l5.34-7.86 536.43 1.07c.88 14.08 24.17 24.12 38.47 24.12h.55v14.79a26.87 26.87 0 0 0 7 18.07 85.92 85.92 0 0 0 38.9-71.95 86 86 0 0 0-62.47-82.71Z" fill="none"/></g><g class="ketchup"><path class="ketchup__drips" d="M3.81 292.71v14a29.13 29.13 0 0 0 29.13 29.13 29.14 29.14 0 0 0 29.13-29.13v-27.5a29.13 29.13 0 0 0-29.13-29.12 29.12 29.12 0 0 0-5.49.52 85.75 85.75 0 0 0-23.64 42.1Z" fill="#8b181d"/><rect class="ketchup__drips" data-name="ketchup__drips" x="168.15" y="277.57" width="58.26" height="85.74" rx="29.13" fill="#8b181d"/><rect class="ketchup__drips" data-name="ketchup__drips" x="599.05" y="278.67" width="58.26" height="85.74" rx="29.13" fill="#8b181d"/><path class="ketchup__drips" data-name="ketchup__drips" d="M1016.75 285.81v27.48a29.12 29.12 0 0 0 28.46 29.11 85.7 85.7 0 0 0 6.4-32.55 85.57 85.57 0 0 0-16.76-51 29.11 29.11 0 0 0-18.1 26.96Z" fill="#8b181d"/></g><g class="lettuce"><path class="lettuce__leaves" d="M998.37 230.21h-7a24.91 24.91 0 0 0-14.83-4.88h-29.22l-.7-.38H91.99a85.75 85.75 0 0 0-62.52 27 25 25 0 0 0 24.87 22.46h85.2a25 25 0 0 0 19.36 9.2h112.54a24.87 24.87 0 0 0 14.74-4.8h82.91c4.13 3 9.54-6.72 15.05-6.72l112.28 11.52c6.69 0 30.53 2.65 35-1.63l39.51-5.27a28.37 28.37 0 0 0 17.61 6.04h2.45a24.88 24.88 0 0 0 11.76 2.94H715.3a24.84 24.84 0 0 0 12.36-3.28l56.88 7.07a25.43 25.43 0 0 0 5 .12c2.17 5.23 3.62 8.54-.44 8.54h112.6c21.92 0 34.52-4.37 40.88-11h55.78a25 25 0 0 0 25-25v-6.91a24.93 24.93 0 0 0-7.1-17.44 85.26 85.26 0 0 0-15.07-7.39 24 24 0 0 0-2.82-.19Z" fill="#00a651"/></g><g class="bun"><path class="bun_top" data-name="bun top" d="M514.06.5C241.6.5 20.73 101.5 20.73 226.05h986.66C1007.39 101.48 786.54.5 514.06.5Z" fill="#ccbe86"/><path class="bun_bottom" data-name="bun bottom" d="M47.51 398.06h933.11a26.78 26.78 0 0 1 26.78 26.78v65a71.56 71.56 0 0 1-71.56 71.56H87.51a66.78 66.78 0 0 1-66.78-66.78v-69.79a26.78 26.78 0 0 1 26.78-26.78Z" fill="#cdbc68"/></g><g class="seeds"><ellipse class="seed" cx="169.25" cy="107.74" rx="22.53" ry="11.54" fill="#fff"/><ellipse class="seed" data-name="seed" cx="284.67" cy="107.74" rx="22.53" ry="11.54" fill="#fff"/><ellipse class="seed" data-name="seed" cx="499.02" cy="155.01" rx="22.53" ry="11.54" fill="#fff"/><ellipse class="seed" data-name="seed" cx="317.64" cy="182.49" rx="22.53" ry="11.54" fill="#fff"/><ellipse class="seed" data-name="seed" cx="161.55" cy="469.39" rx="22.53" ry="11.54" fill="#fff"/><ellipse class="seed" data-name="seed" cx="490.22" cy="460.59" rx="22.53" ry="11.54" fill="#fff"/><ellipse class="seed" data-name="seed" cx="669.4" cy="475.98" rx="22.53" ry="11.54" fill="#fff"/><ellipse class="seed" data-name="seed" cx="173.64" cy="180.29" rx="22.53" ry="11.54" fill="#fff"/><ellipse class="seed" data-name="seed" cx="558.38" cy="94.55" rx="22.53" ry="11.54" fill="#fff"/><ellipse class="seed" data-name="seed" cx="734.8" cy="151.16" rx="22.53" ry="11.54" fill="#fff"/><ellipse class="seed" data-name="seed" cx="630.38" cy="170.94" rx="22.53" ry="11.54" fill="#fff"/><ellipse class="seed" data-name="seed" cx="846.93" cy="148.96" rx="22.53" ry="11.54" fill="#fff"/><ellipse class="seed" data-name="seed" cx="920.57" cy="177.54" rx="22.53" ry="11.54" fill="#fff"/></g></svg>